PathFileType  4	(X/Y/Z) C:\Users\antoi\Documents\MyRepositories\mobilecap\ResultsAnalysis
DataRate	CameraRate	NumFrames	NumMarkers	Units	OrigDataRate	OrigDataStartFrame	OrigNumFrames
100.0	100.0	4	51	mm	100.0	193	256
Frame#	Time	r_knee			r_shank_antsup			r_ankle			r_calc			r_5meta			r_toe			L_knee			L_shank_antsup			L_ankle			L_calc			L_5meta			L_toe			r_sh2			r_sh3			r_sh4			L_sh2			L_sh3			r_thigh1			r_thigh2			r_thigh3			r_thigh4			r_thigh5			L_thigh1			L_thigh2			L_thigh3			L_thigh4			r.ASIS			r.PSIS			L.ASIS			L.PSIS			C7			R_Shoulder			L_Shoulder			R_Sternum			L_Sternum			R_humerus			R_elbow_med			R_elbow_lat			R_forearm			R_wrist_radius			R_wrist_ulna			L_humerus			L_elbow_med			L_elbow_lat			L_forearm			L_wrist_radius			L_wrist_ulna			R_HJC			L_HJC			R_HJC_reg			L_HJC_reg			
		X1	Y1	Z1	X2	Y2	Z2	X3	Y3	Z3	X4	Y4	Z4	X5	Y5	Z5	X6	Y6	Z6	X7	Y7	Z7	X8	Y8	Z8	X9	Y9	Z9	X10	Y10	Z10	X11	Y11	Z11	X12	Y12	Z12	X13	Y13	Z13	X14	Y14	Z14	X15	Y15	Z15	X16	Y16	Z16	X17	Y17	Z17	X18	Y18	Z18	X19	Y19	Z19	X20	Y20	Z20	X21	Y21	Z21	X22	Y22	Z22	X23	Y23	Z23	X24	Y24	Z24	X25	Y25	Z25	X26	Y26	Z26	X27	Y27	Z27	X28	Y28	Z28	X29	Y29	Z29	X30	Y30	Z30	X31	Y31	Z31	X32	Y32	Z32	X33	Y33	Z33	X34	Y34	Z34	X35	Y35	Z35	X36	Y36	Z36	X37	Y37	Z37	X38	Y38	Z38	X39	Y39	Z39	X40	Y40	Z40	X41	Y41	Z41	X42	Y42	Z42	X43	Y43	Z43	X44	Y44	Z44	X45	Y45	Z45	X46	Y46	Z46	X47	Y47	Z47	X48	Y48	Z48	X49	Y49	Z49	X50	Y50	Z50	X51	Y51	Z51	

193	1.92000000	-150.52436	745.30474	-298.19491	-192.72310	598.98445	-257.58634	-175.67377	242.16723	-250.61396	-225.53803	269.22174	-314.68579	-117.16052	94.96574	-255.29110	-64.18908	101.30364	-297.52235	-181.50892	764.92731	-764.20710	-132.87156	574.72073	-802.30375	-209.96712	281.11032	-848.78352	-234.02772	286.14224	-766.09479	-172.89529	123.12451	-907.45905	-99.01955	124.77403	-885.01510	-197.69771	487.48678	-241.60806	-120.41779	598.85656	-277.85157	-120.24318	485.04638	-269.18343	-213.14318	590.44014	-835.79971	-217.28412	469.63652	-842.29343	-142.26559	1042.96803	-289.65280	-118.09664	931.33243	-277.90336	-177.17888	896.70543	-283.55799	-236.19819	1015.44906	-348.77584	-219.71438	901.88492	-320.53543	-187.99913	1069.76674	-734.20390	-198.26638	933.91983	-756.58004	-79.15276	1055.32702	-722.79373	-90.94575	922.26845	-743.63331	-90.16180	1330.03634	-367.98148	-252.98268	1347.17347	-478.58590	-47.12845	1322.96409	-636.98631	-237.78871	1352.57232	-568.87127	-171.46997	1835.90387	-517.94763	-80.47729	1871.01662	-402.41538	-101.21158	1861.74469	-633.48215	-20.77041	1764.03974	-490.39300	-22.34840	1763.17656	-544.32069	-29.22643	1774.08189	-173.40447	-96.01115	1660.87242	-65.11970	-66.80638	1746.74529	-47.50589	112.82068	1700.07483	-148.31061	185.63577	1673.38122	-196.93128	195.39334	1680.53622	-161.31284	-15.60436	1826.25020	-878.47216	-86.08349	1762.50773	-992.37053	-40.10955	1835.99649	-985.52902	102.60022	1772.78304	-857.86500	136.38872	1745.86029	-808.29949	158.33872	1746.69276	-833.06264	-151.04899	1229.26571	-411.71922	-128.42109	1229.71651	-607.89407	-142.27663	1232.11748	-421.76062	-112.46336	1242.71053	-598.80882	
194	1.93000000	-159.83011	768.22665	-301.49997	-197.53069	621.33544	-259.39778	-171.41400	264.65437	-249.03516	-220.74381	287.10421	-315.84544	-105.21163	119.94907	-248.74289	-50.88898	128.31821	-288.95736	-183.53770	788.54343	-760.79765	-134.24382	599.69127	-798.21180	-206.25081	303.71574	-843.57843	-232.29340	306.41811	-761.59094	-160.25893	147.59188	-903.65656	-86.88501	153.23514	-879.42065	-198.60092	510.03889	-241.69441	-125.94712	623.27128	-281.47541	-121.80863	509.40826	-271.38908	-214.95608	613.82684	-831.37026	-217.05470	492.97644	-836.91970	-140.52044	1062.99399	-291.41835	-121.02984	952.18012	-282.39505	-181.48097	918.98082	-287.25984	-237.56628	1041.49352	-347.61409	-224.69385	926.74634	-322.72980	-188.48710	1092.66154	-729.65779	-200.01291	957.20564	-752.89108	-79.67695	1077.39344	-720.44057	-92.91611	944.40779	-740.27961	-82.52432	1353.28476	-366.78336	-245.82887	1371.23336	-475.06694	-41.62996	1346.19685	-634.13615	-231.76429	1377.49736	-566.91077	-173.09938	1857.16782	-516.16307	-83.19180	1891.11494	-398.26555	-102.68575	1881.63199	-635.44360	-21.68663	1786.40166	-488.22236	-22.80086	1785.41336	-542.62225	-38.07765	1786.69723	-170.73883	-109.69597	1674.21794	-65.46898	-78.21764	1758.53282	-46.23595	105.67149	1702.92580	-135.24683	180.30468	1672.57128	-178.74466	188.28233	1679.54177	-142.89131	-22.62669	1833.26725	-882.19379	-97.72828	1767.80303	-991.02296	-48.17837	1839.24549	-988.52892	94.03063	1774.56225	-861.55573	127.96891	1747.98672	-811.26206	149.19714	1747.31784	-837.72180	-144.60650	1252.94054	-409.53843	-123.14652	1253.54303	-605.84474	-134.35739	1255.28801	-420.03248	-107.39013	1267.28634	-596.14395	
195	1.94000000	-165.43599	790.06221	-302.41303	-203.22094	642.53273	-261.19283	-171.30463	285.82411	-251.98015	-216.68272	305.60446	-322.71342	-99.04564	143.93979	-245.11260	-41.97706	154.96359	-280.61388	-180.91648	810.59768	-757.92479	-132.34066	621.76114	-793.98605	-203.62809	325.12396	-836.82057	-231.75899	326.61342	-755.65350	-153.47146	169.89388	-898.35796	-80.80559	176.86266	-871.77364	-201.91164	531.36895	-243.31689	-131.60326	646.29399	-282.33096	-125.17937	532.82372	-271.92664	-213.70585	635.06420	-825.47250	-215.50218	514.28548	-829.52012	-137.81194	1083.51294	-293.55508	-119.60410	973.79190	-285.22817	-180.69867	940.74345	-289.44295	-237.14671	1064.49664	-346.62927	-224.44442	949.35361	-323.57471	-188.19107	1114.83333	-726.36906	-198.11742	979.49230	-751.44789	-79.11169	1100.51628	-719.25188	-90.97072	967.54749	-738.89639	-76.91061	1374.36194	-365.24026	-242.03368	1393.83787	-471.94391	-38.91062	1367.34414	-631.29837	-228.65338	1401.30487	-564.89569	-173.49435	1877.62958	-514.52409	-83.87696	1908.79532	-392.86259	-102.23091	1899.63859	-638.97608	-21.29143	1807.45561	-486.00573	-22.13903	1806.22270	-540.91516	-45.81694	1796.40245	-166.67325	-121.50561	1685.01584	-64.16521	-88.65150	1768.03819	-44.12226	98.61535	1704.08908	-121.26218	174.33460	1670.17196	-159.84232	180.69751	1677.27002	-124.02983	-28.72721	1837.68000	-886.39662	-108.71905	1768.86678	-988.96167	-56.65505	1838.53279	-991.25979	86.43045	1774.58306	-865.07804	120.65440	1749.11534	-814.09926	142.14774	1747.37938	-840.96157	-141.31828	1274.77969	-407.47564	-121.12697	1275.66195	-603.91636	-129.64587	1276.04314	-418.89072	-104.45094	1290.10070	-593.97052	
196	1.95000000	-168.79392	810.39809	-301.71243	-210.31548	661.99049	-263.96805	-173.44880	305.51407	-258.39631	-211.16197	326.36154	-333.00142	-99.51852	165.10551	-246.00419	-38.46735	178.07565	-273.55960	-175.50799	831.31503	-755.47578	-127.27317	641.69389	-790.39427	-201.46106	345.83820	-829.19164	-228.25771	349.31339	-747.81150	-156.04680	189.07029	-889.20573	-83.19748	193.78517	-863.33714	-207.98596	550.23295	-248.04218	-137.61142	667.46964	-279.98116	-130.11119	554.61898	-270.21799	-209.28601	655.25223	-819.72999	-211.87618	534.47497	-823.27870	-134.32186	1104.93651	-294.80039	-115.72194	995.35834	-285.61607	-176.92499	962.28215	-288.82256	-234.66736	1085.74718	-345.76954	-221.14469	970.58066	-322.29575	-187.14528	1135.91044	-724.23583	-195.10782	1000.45042	-750.36136	-77.73861	1123.42872	-720.24485	-87.78761	990.24488	-739.09478	-73.82517	1393.80764	-363.52817	-241.03943	1415.11993	-469.15045	-38.87401	1387.90017	-629.34070	-228.31781	1423.39202	-562.50706	-171.95090	1898.12248	-513.54992	-82.65745	1924.41050	-386.38607	-100.13077	1915.91266	-642.74592	-19.66832	1827.79175	-484.12945	-20.20374	1826.56985	-538.94740	-52.21831	1803.66222	-161.90547	-132.47418	1693.41096	-61.89885	-98.33892	1775.45162	-41.41992	91.40988	1703.99864	-107.12501	167.14763	1666.76640	-140.67113	172.36630	1674.05848	-105.43829	-34.55915	1839.05118	-890.54640	-118.96207	1766.75433	-985.83773	-65.21957	1834.76050	-993.42107	79.78388	1772.87135	-868.38869	114.40124	1748.68154	-816.92078	136.69890	1746.35304	-842.70449	-140.30837	1295.04869	-405.88202	-121.63326	1296.80843	-602.46562	-128.08791	1295.89391	-417.57474	-104.28037	1311.38163	-592.27082	
